<svg xmlns="http://www.w3.org/2000/svg" viewBox="0 0 38.22 38.22"><defs><style>.cls-1{fill:#343141;fill-rule:evenodd;}.cls-2{fill:none;}</style></defs><title>github</title><g id="レイヤー_2" data-name="レイヤー 2"><g id="レイヤー_2-2" data-name="レイヤー 2"><path class="cls-1" d="M19.11,0a19.12,19.12,0,0,0-6,37.25c1,.17,1.3-.42,1.3-.93s0-1.65,0-3.25C9,34.23,7.91,30.51,7.91,30.51a5,5,0,0,0-2.12-2.79c-1.74-1.19.13-1.17.13-1.17a4,4,0,0,1,2.93,2,4.07,4.07,0,0,0,5.56,1.59,4.07,4.07,0,0,1,1.21-2.55c-4.24-.48-8.7-2.13-8.7-9.45a7.42,7.42,0,0,1,2-5.13,6.89,6.89,0,0,1,.19-5.05s1.61-.52,5.26,2a17.94,17.94,0,0,1,9.57,0c3.64-2.48,5.25-2,5.25-2A6.89,6.89,0,0,1,29.34,13a7.42,7.42,0,0,1,2,5.13c0,7.34-4.47,9-8.73,9.43a4.55,4.55,0,0,1,1.3,3.54c0,2.56,0,4.62,0,5.24s.34,1.11,1.31.92A19.11,19.11,0,0,0,19.11,0"/><circle class="cls-2" cx="19.11" cy="19.11" r="19.11"/></g></g></svg>