<svg xmlns="http://www.w3.org/2000/svg" viewBox="0 0 38.3 38.3"><defs><style>.cls-1{fill:#343141;}</style></defs><title>hatena-blog</title><g id="レイヤー_2" data-name="レイヤー 2"><g id="レイヤー_2-2" data-name="レイヤー 2"><path class="cls-1" d="M19.15,38.3A19.15,19.15,0,1,1,38.3,19.15,19.17,19.17,0,0,1,19.15,38.3Zm0-35.86A16.71,16.71,0,1,0,35.86,19.15,16.73,16.73,0,0,0,19.15,2.44Zm2.23,7.25a26.56,26.56,0,0,1-1.8-4.81V18.45a1.23,1.23,0,0,1,.82,1.16,1.25,1.25,0,1,1-1.62-1.19V4.87A26.39,26.39,0,0,1,17,9.69a47.69,47.69,0,0,1-3.29,5.58l1.17,16S16,32.5,19.18,32.51h0c3.21,0,4.32-1.25,4.32-1.25l1.17-16a47.69,47.69,0,0,1-3.29-5.58Z"/></g></g></svg>