<svg xmlns="http://www.w3.org/2000/svg" viewBox="0 0 38.3 38.3"><defs><style>.cls-1{fill:#343141;}</style></defs><title>twitter</title><g id="レイヤー_2" data-name="レイヤー 2"><g id="レイヤー_2-2" data-name="レイヤー 2"><path class="cls-1" d="M19.15,0A19.15,19.15,0,1,0,38.3,19.15,19.15,19.15,0,0,0,19.15,0Zm9.44,16.13c0,.2,0,.39,0,.59a13,13,0,0,1-20,11,9.82,9.82,0,0,0,1.09.06,9.15,9.15,0,0,0,5.68-2,4.57,4.57,0,0,1-4.27-3.17,4.66,4.66,0,0,0,2.07-.08,4.58,4.58,0,0,1-3.68-4.49V18a4.58,4.58,0,0,0,2.08.57,4.57,4.57,0,0,1-2-3.81,4.63,4.63,0,0,1,.62-2.3,13,13,0,0,0,9.44,4.79,4.58,4.58,0,0,1,7.8-4.18A9.09,9.09,0,0,0,30.26,12a4.57,4.57,0,0,1-2,2.53,8.91,8.91,0,0,0,2.63-.72A9.06,9.06,0,0,1,28.59,16.13Z"/></g></g></svg>