<svg xmlns="http://www.w3.org/2000/svg" viewBox="0 0 32.07 32.07"><defs><style>.cls-1{fill:#fff;}.cls-2{fill:none;}</style></defs><title>aviutl</title><g id="レイヤー_2" data-name="レイヤー 2"><g id="レイヤー_1-2" data-name="レイヤー 1"><rect class="cls-1" x="24.98" y="23.53" width="1.57" height="2.03"/><rect class="cls-1" x="5.52" y="20.53" width="1.58" height="2.03"/><rect class="cls-1" x="24.98" y="8.54" width="1.57" height="2.03"/><rect class="cls-1" x="5.52" y="17.53" width="1.58" height="2.03"/><rect class="cls-1" x="5.52" y="4.03" width="1.58" height="0.54"/><rect class="cls-1" x="24.98" y="5.54" width="1.57" height="2.03"/><rect class="cls-1" x="24.98" y="4.03" width="1.57" height="0.54"/><rect class="cls-1" x="24.98" y="11.54" width="1.57" height="2.03"/><rect class="cls-1" x="24.98" y="20.53" width="1.57" height="2.03"/><rect class="cls-1" x="24.98" y="14.53" width="1.57" height="2.03"/><rect class="cls-1" x="24.98" y="17.53" width="1.57" height="2.03"/><rect class="cls-1" x="5.52" y="26.52" width="1.58" height="1.51"/><path class="cls-1" d="M23.52,4V8.54h-15V4H7.6V28h.92V23.16h15V28h1V4Zm0,18h-15V9.55h15Z"/><rect class="cls-1" x="27.47" y="4.03" width="0.56" height="24"/><rect class="cls-1" x="4.03" y="4.03" width="0.56" height="24"/><rect class="cls-1" x="24.98" y="26.52" width="1.57" height="1.51"/><rect class="cls-1" x="5.52" y="8.54" width="1.58" height="2.03"/><rect class="cls-1" x="5.52" y="14.53" width="1.58" height="2.03"/><rect class="cls-1" x="5.52" y="23.53" width="1.58" height="2.03"/><rect class="cls-1" x="5.52" y="11.54" width="1.58" height="2.03"/><rect class="cls-1" x="5.52" y="5.54" width="1.58" height="2.03"/><rect class="cls-2" width="32.07" height="32.07"/></g></g></svg>