<svg xmlns="http://www.w3.org/2000/svg" viewBox="0 0 32.07 32.07"><defs><style>.cls-1{fill:none;}.cls-2{fill:#fff;}</style></defs><title>dessin</title><g id="レイヤー_2" data-name="レイヤー 2"><g id="レイヤー_1-2" data-name="レイヤー 1"><rect class="cls-1" width="32.07" height="32.07"/><path class="cls-2" d="M19,3.78l-7.7,7.69a5.63,5.63,0,0,0-1.23,1.87h0L4.17,27.89h0L18.72,22h0a5.66,5.66,0,0,0,1.87-1.24l7.7-7.69ZM6.19,25.87l1.7-4.17h0l-1.7,4.17,1.7-4.17,2.48,2.48Zm14-6.31a3.72,3.72,0,0,0-1-1.59A4.09,4.09,0,0,0,17,16.81a2,2,0,0,1-1.66-1.65A4,4,0,0,0,14.17,13a3.51,3.51,0,0,0-1.73-1L19,5.35l7.7,7.7Z"/></g></g></svg>