<svg xmlns="http://www.w3.org/2000/svg" viewBox="0 0 32.07 32.07"><defs><style>.cls-1{fill:#fff;}.cls-2{fill:none;}</style></defs><title>git</title><g id="レイヤー_2" data-name="レイヤー 2"><g id="レイヤー_1-2" data-name="レイヤー 1"><path class="cls-1" d="M30.18,14.72,17.34,1.89a1.9,1.9,0,0,0-2.68,0L12,4.55l3.38,3.39a2.25,2.25,0,0,1,2.85,2.86l3.26,3.26a2.25,2.25,0,1,1-1.35,1.27l-3-3v8a2.65,2.65,0,0,1,.59.42,2.25,2.25,0,1,1-3.18,0,2.39,2.39,0,0,1,.74-.49V12.15a2.22,2.22,0,0,1-.74-.49A2.25,2.25,0,0,1,14,9.2L10.69,5.86l-8.8,8.8a1.9,1.9,0,0,0,0,2.68L14.72,30.18a1.9,1.9,0,0,0,2.68,0L30.18,17.4a1.9,1.9,0,0,0,0-2.68Z"/><rect class="cls-2" width="32.07" height="32.07"/></g></g></svg>