<svg xmlns="http://www.w3.org/2000/svg" viewBox="0 0 121.29 56.99"><defs><style>.cls-1{fill:#fff;}</style></defs><title>chige_logo</title><g id="レイヤー_2" data-name="レイヤー 2"><g id="レイヤー_2-2" data-name="レイヤー 2"><path class="cls-1" d="M39.12,13.6V20c0,.91,0,.92-.91.92H27c-.8,0-.8,0-.81.8,0,1,0,2,0,3,0,.54.18.68.7.68,3.76,0,7.52,0,11.29,0,1,0,1,0,1,1,0,4.19,0,8.37,0,12.56a1.92,1.92,0,0,1-.72,1.62A23.14,23.14,0,1,1,18.42.51,22.74,22.74,0,0,1,38.59,5.9a1.47,1.47,0,0,1,.53,1.27Z"/><path class="cls-1" d="M76.69,56.11l9.53-8.89a.5.5,0,0,0-.27-.85l-.51-.07A11.64,11.64,0,1,1,98.76,32.89a20.12,20.12,0,0,1,.14,3.2q0,10,0,20.09c0,.81,0,.81-.84.81H77A.51.51,0,0,1,76.69,56.11Z"/><path class="cls-1" d="M61.07,39.06a2.56,2.56,0,0,1,.39,1.26c0,1.79,0,3.58,0,5.37,0,.51-.16.72-.69.72q-8.48,0-16.93,0c-.57,0-.72-.22-.72-.76,0-9.67,0-28.34,0-33.78a.44.44,0,0,1,.81-.23C46.76,16.13,56.2,31.23,61.07,39.06Z"/><path class="cls-1" d="M115,45.78a.43.43,0,0,1-.24.64,10.09,10.09,0,0,1-1.94.44,9.7,9.7,0,1,1,8.41-11,10.39,10.39,0,0,1-.32,4.26,1,1,0,0,1-1.15.87c-2.44,0-4.89,0-7.34,0h-.46a.18.18,0,0,0-.15.28Z"/><path class="cls-1" d="M72.08,37.85c0,2.61,0,5.22,0,7.83,0,.56-.18.74-.73.73-1.76,0-3.52,0-5.28,0-.53,0-.76-.12-.75-.71,0-5.24,0-10.47,0-15.71,0-.54.18-.71.7-.7q2.67,0,5.34,0c.57,0,.72.2.72.75C72.06,32.63,72.08,35.24,72.08,37.85Z"/><path class="cls-1" d="M73.42,21.41a4.78,4.78,0,1,1-4.78-4.85A4.78,4.78,0,0,1,73.42,21.41Z"/></g></g></svg>