<svg xmlns="http://www.w3.org/2000/svg" viewBox="0 0 53.5 53.5"><defs><style>.cls-1{fill:#231815;}.cls-2{fill:#fff;fill-rule:evenodd;}</style></defs><title>github</title><g id="レイヤー_2" data-name="レイヤー 2"><g id="レイヤー_1-2" data-name="レイヤー 1"><g id="Dark_Blue" data-name="Dark Blue"><rect class="cls-1" width="53.5" height="53.5"/></g><path class="cls-2" d="M26.75,13.59a13.49,13.49,0,0,0-4.26,26.29c.68.12.92-.29.92-.65s0-1.17,0-2.29c-3.75.81-4.54-1.81-4.54-1.81a3.58,3.58,0,0,0-1.5-2c-1.22-.83.09-.82.09-.82a2.84,2.84,0,0,1,2.07,1.4,2.88,2.88,0,0,0,3.93,1.12A2.9,2.9,0,0,1,24.29,33c-3-.34-6.14-1.5-6.14-6.66a5.17,5.17,0,0,1,1.39-3.62,4.81,4.81,0,0,1,.13-3.57s1.13-.37,3.71,1.38a12.88,12.88,0,0,1,6.75,0c2.58-1.75,3.71-1.38,3.71-1.38A4.87,4.87,0,0,1,34,22.76a5.17,5.17,0,0,1,1.39,3.62c0,5.18-3.16,6.32-6.16,6.65a3.24,3.24,0,0,1,.92,2.5c0,1.8,0,3.26,0,3.7s.24.78.93.65a13.49,13.49,0,0,0-4.28-26.29"/></g></g></svg>