<svg xmlns="http://www.w3.org/2000/svg" viewBox="0 0 53.5 53.5"><defs><style>.cls-1{fill:#38393c;}.cls-2{fill:#fff;}</style></defs><title>hatenablog</title><g id="レイヤー_2" data-name="レイヤー 2"><g id="レイヤー_1-2" data-name="レイヤー 1"><g id="Dark_Blue" data-name="Dark Blue"><rect class="cls-1" width="53.5" height="53.5"/></g><path class="cls-2" d="M26.72,40.07A13.32,13.32,0,1,1,40,26.75,13.33,13.33,0,0,1,26.72,40.07Zm0-25A11.63,11.63,0,1,0,38.35,26.75,11.64,11.64,0,0,0,26.72,15.12Z"/><path class="cls-2" d="M28.28,20.17A19.05,19.05,0,0,1,27,16.83v9.43a.86.86,0,0,1,.56.81.87.87,0,1,1-1.12-.83V16.82a19.1,19.1,0,0,1-1.25,3.35,34.32,34.32,0,0,1-2.29,3.88l.81,11.12s.77.87,3,.87h0c2.23,0,3-.87,3-.87l.82-11.12A32.68,32.68,0,0,1,28.28,20.17Z"/></g></g></svg>