<svg xmlns="http://www.w3.org/2000/svg" viewBox="0 0 53.5 53.5"><defs><style>.cls-1{fill:#0096fa;}.cls-2{fill:#fff;}</style></defs><title>pixiv</title><g id="レイヤー_2" data-name="レイヤー 2"><g id="レイヤー_1-2" data-name="レイヤー 1"><g id="Dark_Blue" data-name="Dark Blue"><rect class="cls-1" width="53.5" height="53.5"/></g><path class="cls-2" d="M36,18.31a12.23,12.23,0,0,0-8.13-2.78c-8.56,0-14.38,6.61-14.38,6.61l1.64,2.6s.91.08.43-1.46a9.77,9.77,0,0,1,2.81-3.06V37.57c-.68.19-1.59.56-1,1.17h4.71c.62-.62-.36-1-.95-1.17V33.48a20.79,20.79,0,0,0,6.71,1.27,12.67,12.67,0,0,0,7.92-2.56,8.67,8.67,0,0,0,3.39-6.87A9.19,9.19,0,0,0,36,18.31ZM33.5,30.82a8.33,8.33,0,0,1-5.92,2.31h0a15,15,0,0,1-6.41-1.25v-13A12.1,12.1,0,0,1,27.58,17a8,8,0,0,1,6,2.48,8.42,8.42,0,0,1,2.13,5.81A7.56,7.56,0,0,1,33.5,30.82Z"/></g></g></svg>