<svg xmlns="http://www.w3.org/2000/svg" viewBox="0 0 53.5 53.5"><defs><style>.cls-1{fill:#1da1f2;}.cls-2{fill:#fff;}</style></defs><title>twitter</title><g id="レイヤー_2" data-name="レイヤー 2"><g id="レイヤー_1-2" data-name="レイヤー 1"><g id="Dark_Blue" data-name="Dark Blue"><rect class="cls-1" width="53.5" height="53.5"/></g><g id="Logo_FIXED" data-name="Logo — FIXED"><path class="cls-2" d="M22.16,39.06c10.75,0,16.63-8.91,16.63-16.62,0-.25,0-.5,0-.75a12.06,12.06,0,0,0,2.92-3,11.87,11.87,0,0,1-3.36.93,5.85,5.85,0,0,0,2.57-3.24,11.55,11.55,0,0,1-3.71,1.41,5.85,5.85,0,0,0-10.11,4,6.63,6.63,0,0,0,.15,1.34,16.6,16.6,0,0,1-12-6.11,5.75,5.75,0,0,0-.79,2.94A5.84,5.84,0,0,0,17,24.78a5.92,5.92,0,0,1-2.65-.72v.07A5.87,5.87,0,0,0,19,29.87a6,6,0,0,1-1.54.2,5.52,5.52,0,0,1-1.09-.1A5.85,5.85,0,0,0,21.86,34a11.7,11.7,0,0,1-7.25,2.5,10.85,10.85,0,0,1-1.4-.08,16.67,16.67,0,0,0,9,2.61"/></g></g></g></svg>