<svg xmlns="http://www.w3.org/2000/svg" viewBox="0 0 53.5 53.5"><defs><style>.cls-1{fill:red;}.cls-2{fill:#fff;}</style></defs><title>youtube</title><g id="レイヤー_2" data-name="レイヤー 2"><g id="レイヤー_1-2" data-name="レイヤー 1"><g id="Dark_Blue" data-name="Dark Blue"><rect class="cls-1" width="53.5" height="53.5"/></g><path class="cls-2" d="M41.79,19.2A4,4,0,0,0,39,16.43c-2.46-.67-12.28-.67-12.28-.67s-9.83,0-12.28.65A4,4,0,0,0,11.7,19.2a41.87,41.87,0,0,0-.64,7.55,41.69,41.69,0,0,0,.64,7.55,3.94,3.94,0,0,0,2.77,2.76c2.48.67,12.28.67,12.28.67s9.82,0,12.28-.64a3.92,3.92,0,0,0,2.76-2.77,41.18,41.18,0,0,0,.65-7.55A39.61,39.61,0,0,0,41.79,19.2ZM23.62,31.45V22l8.17,4.71Z"/></g></g></svg>